<svg xmlns="http://www.w3.org/2000/svg" viewBox="0 0 2389.9 1994.14"><defs><style>.cls-1{fill:#fefefe;}.cls-2{fill:#d69d36;}.cls-3{fill:#dfb363;}.cls-4{fill:#f6ead4;}.cls-5{fill:#f4e5c9;}.cls-6{fill:#eacc97;}.cls-7{fill:#fff;}.cls-8{fill:#d69e38;}.cls-9{fill:#d7a03c;}.cls-10{fill:#d79f3b;}.cls-11{fill:#d8a240;}.cls-12{fill:#dba74b;}.cls-13{fill:#daa647;}.cls-14{fill:#d9a13f;}.cls-15{fill:#d9a240;}.cls-16{fill:#fbf8f0;}.cls-17{fill:#e4bc77;}.cls-18{fill:#d9a342;}.cls-19{fill:#e0b465;}.cls-20{fill:#e1b66a;}.cls-21{fill:#e5bc75;}.cls-22{fill:#e2b86d;}.cls-23{fill:#e3b86e;}.cls-24{fill:#e3bd77;}.cls-25{fill:#e7b96e;}.cls-26{fill:#e6bc76;}.cls-27{fill:#ebd2a2;}.cls-28{fill:#edd8ae;}.cls-29{fill:#e1ba70;}.cls-30{fill:#e1b86d;}.cls-31{fill:#dfaa51;}.cls-32{fill:#f7f1e1;}.cls-33{fill:#fffefe;}.cls-34{fill:#fffffe;}.cls-35{fill:#fefdfc;}.cls-36{fill:#fdfaf5;}.cls-37{fill:#fdfaf4;}.cls-38{fill:#fcfbf6;}.cls-39{fill:#f7efde;}.cls-40{fill:#faf6ec;}.cls-41{fill:#eedcb8;}.cls-42{fill:#fcf9f3;}.cls-43{fill:#f9f5ea;}.cls-44{fill:#e1a444;}.cls-45{fill:#dda344;}.cls-46{fill:#fcfcf9;}.cls-47{fill:#e1a649;}.cls-48{fill:#feffff;}.cls-49{fill:#d7a13e;}.cls-50{fill:#dba84c;}.cls-51{fill:#dba84d;}.cls-52{fill:#daa445;}.cls-53{fill:#daa546;}.cls-54{fill:#d9a444;}.cls-55{fill:#d8a13f;}.cls-56{fill:#d8a03d;}.cls-57{fill:#fbf8f1;}.cls-58{fill:#fbf9f2;}.cls-59{fill:#fcfdfb;}.cls-60{fill:#fcfcfa;}.cls-61{fill:#f8f2e5;}.cls-62{fill:#fbfbf6;}.cls-63{fill:#faf7ed;}.cls-64{fill:#f8f2e4;}</style></defs><title>Asset 1</title><g id="Layer_2" data-name="Layer 2"><g id="Layer_1-2" data-name="Layer 1"><path class="cls-1" d="M0,0H1138a2,2,0,0,1-.4,2.8c-15.5,4.5-31.6,3.8-47.4,5.5A1001.62,1001.62,0,0,0,918.8,42.2a959.57,959.57,0,0,0-174.3,69.4A1018.12,1018.12,0,0,0,547.1,245.2,996.46,996.46,0,0,0,267.7,646.1a1009.27,1009.27,0,0,0-54.3,213.7,972.4,972.4,0,0,0-8.3,184.4c5.9,122.3,33.1,240,82.5,352.2a983.88,983.88,0,0,0,148.3,238.7c22.5,26.8,45.9,52.8,71.2,77a1011.53,1011.53,0,0,0,193.4,146,984.8,984.8,0,0,0,281.1,109.6,1031,1031,0,0,0,145.2,21.3,869,869,0,0,0,105.8,2c129.5-5.7,253.9-33.6,372.3-87.2A993.25,993.25,0,0,0,1839.8,1755q139.2-118.35,227.4-278.8c59.3-107.5,96.4-222.2,113.8-343.5a959.57,959.57,0,0,0,8.1-182.4c-6.2-126.4-34.7-247.7-87.2-363.2A1003.16,1003.16,0,0,0,1945.8,344q-111.75-129-260.2-212.9C1576.9,69.2,1460.4,30,1336.5,12.3c-25.1-3.6-50.2-5.8-75.5-7.8-2.3-.2-4.7-.4-6.7-1.7a2,2,0,0,1-.4-2.8h1136"/><path class="cls-2" d="M1254.1,1.7Q1561,20.45,1805,207.8c127.2,98,224.6,220.2,293.2,365.3a976.16,976.16,0,0,1,78,243.7,1034.11,1034.11,0,0,1,14.3,118.9,971.25,971.25,0,0,1,.9,107.9c-5.9,124.4-33.6,243.7-84.2,357.6q-79,178.05-219.2,313.4c-129.9,124.9-282.3,209.2-457.5,251.7a1013.91,1013.91,0,0,1-269.5,27.2c-129.2-5-253.1-33.3-371.1-86.4-119-53.6-223.8-127.6-313.5-222.3Q290.7,1488.9,228,1226.3c-11-46.1-18.1-92.7-22.5-139.9a947,947,0,0,1-2.9-136.8C212.9,751.5,275.3,571.4,392,410.7Q541.85,204.3,772.6,94.9A967.65,967.65,0,0,1,1021,15.6,1044,1044,0,0,1,1137.9,1.7c5.1-1.4,10.3-.3,15.5-.7h10.2c5.4-.5,11,1.1,16.4-1h34c5.3,2.2,10.8.5,16.2,1h10.2C1245,1.4,1249.6.3,1254.1,1.7Z"/><path class="cls-3" d="M1180,0c-5,3.8-10.7,1.3-16.1,1.9-.6-.5-.8-.9-.5-1.3s.4-.6.6-.6Z"/><path class="cls-3" d="M1230.1,1.9c-5.4-.6-11.1,2-16.1-1.9h16c.6.4.9.8.7,1.2S1230.3,1.9,1230.1,1.9Z"/><path class="cls-4" d="M1153.8,1.7h-15.9A9.7,9.7,0,0,0,1138,0h16q1.05.6.6,1.2A1,1,0,0,1,1153.8,1.7Z"/><path class="cls-5" d="M1254.1,1.7c-4.7,0-9.3,0-14,.1-.7-.3-1-.7-.8-1.1s.4-.6.7-.6h14A9.15,9.15,0,0,0,1254.1,1.7Z"/><path class="cls-6" d="M1153.8,1.7A9.85,9.85,0,0,0,1154,0h10a12.1,12.1,0,0,1-.1,1.9C1160.5,1.8,1157.2,1.7,1153.8,1.7Z"/><path class="cls-6" d="M1240,0a10.87,10.87,0,0,0,.1,1.8c-3.3,0-6.7.1-10,.1A12.1,12.1,0,0,1,1230,0Z"/><path class="cls-7" d="M2176.7,996.9c.2,156.7-34.6,305.2-106,444.6Q1929.25,1718,1655,1864.8c-89.9,48.2-185.4,80.6-285.7,98.7a982.61,982.61,0,0,1-111,13.1c-27,1.7-54,2-80.9,1.5A974,974,0,0,1,576.8,1757Q436.7,1642,346.3,1484.5a969.27,969.27,0,0,1-105-269.9,997.94,997.94,0,0,1-22.7-271.9A957.32,957.32,0,0,1,262,702.6c38.2-121.2,97.2-231.3,178.4-329.1Q639,134.25,938.7,50.2c49.4-13.8,99.8-22.9,150.8-28.6a961.8,961.8,0,0,1,152.7-4.9q195.3,9,372.5,92.4A969.56,969.56,0,0,1,1909,322.8Q2093.8,519,2153.4,782a952,952,0,0,1,19.1,121.2C2175.4,934.3,2176.6,965.6,2176.7,996.9Z"/><path class="cls-2" d="M1196.4,1925.2c-509.2-.8-922.4-409.1-927.8-919.1C263.1,482.8,685.4,68.5,1193.1,67c503.6-1.5,924.9,403.1,930.3,919.4C2128.8,1503.2,1713.9,1923.8,1196.4,1925.2Z"/><path class="cls-7" d="M1196.4,82.4c507.6,1.3,912.2,412.8,911.5,914.8-.6,501.6-405.6,912.7-912.9,912.2s-911.9-412.7-911-915C284.9,493.3,689.6,83.2,1196.4,82.4Z"/><path class="cls-2" d="M1091,948.8a27.67,27.67,0,0,1-6.7,14.1c-4.1,4.6-3.7,9-1.8,14.7,4.2,12.3,8.6,24.3,15.8,35.3,13.7,21,31.9,35.8,55,45.8,11.6,5,23.8,5.9,35.6,8.7,11.6,2.7,23.1-1.4,34.4-4.1,4.7-1.1,5.6-5.4,5.8-9.5.3-6.7.4-13.3.4-20,0-3.3,0-6.6,1.2-9.8,2.7-6.8,4.5-7.8,12-6.7,5.6.8,11.3.8,16.9,1.8,7.7,1.3,8.9,4.3,5,10.8-1.1,1.9-3.9,3.5-1.9,6,2.6,3.3,6.4,3.2,10.1,2.1,3.1-.9,3.9-3.6,3.4-6.4-.9-4.8-.2-10.1-4.4-14-1.6-1.5-2.6-3.5-1.1-5.3,4.6-5.6,7.9-12.4,16-14.2,6.2-1.4,6.8-4.3,2.3-8.5a17.51,17.51,0,0,0-12.6-5.1c-5.3-.1-5.6-1.3-2.9-5.9,4.5-7.6,3.3-10.6-5.4-12-2.7-.4-5.2-.6-7.4-2.5a16.66,16.66,0,0,0-11.1-3.8c-5.4.1-9.2-3.5-13.4-6a2.9,2.9,0,0,1-1.5-3.4,3.32,3.32,0,0,1,2.9-2.4c2.3-.2,4.7-.3,7-.3h498.9c1,0,2,.1,3,0,5-.6,7.4,1.3,7,6.7-.4,5.6.3,11.4-.2,17-1.5,19.3,0,38.7-3.2,57.8-3.8,22.6-7,45.4-12.9,67.4-4.5,17.2-9.7,34.3-15.9,51.1-5.2,14-10.7,27.8-16.6,41.4-7.4,17-16.3,33.4-25.7,49.5a512.72,512.72,0,0,1-55.4,78c-31.5,36.4-66.5,68.9-106.7,95.8-26,17.4-52.9,32.9-81.5,45.7a554.71,554.71,0,0,1-69.6,26.1c-16.9,5-33.9,8.9-51.1,12.5a623.23,623.23,0,0,1-100.8,12,299.41,299.41,0,0,1-62.7-3.7c-5.3-.9-10.6-1.9-15.8-1.9-17.2,0-33.3-5.8-50.1-8.1-12.4-1.7-24.3-6.4-36.5-9.8-8.6-2.4-17.1-5.3-25.6-8a417,417,0,0,1-40.7-15.7,588.78,588.78,0,0,1-57.7-29.2,572.68,572.68,0,0,1-120.7-92.7A565.68,565.68,0,0,1,692,1178.8c-5.8-12.6-10.8-25.6-16.5-38.3-3.7-8.1-5.7-16.9-8.4-25.4q-5.4-17.1-10.5-34.2c-1-3.2-1.6-6.4-2.3-9.7-.4-2,0-4.1-.7-5.9-6-15.7-5.9-32.6-9.3-48.9-4.4-20.6-3.8-41.7-4.6-62.7-.1-3.7,1.2-5.7,5.2-5.5,2,.1,4,0,6,0h430.9C1084.8,948.1,1087.8,947.5,1091,948.8Z"/><path class="cls-2" d="M1235,1706.9c-.1,3.4,1.6,5.1,3.2,6.7,23.9,23.6,45.8,49.2,70.6,71.9,7.3,6.7,14.3,13.8,23.8,17.8,6.8,2.9,7.3,10.1,1.1,13.9-4.5,2.8-8.9,5.8-13.4,8.5-6,3.6-9.1,2.6-15.2-2.3-24.7-20.2-44.5-44.6-63.1-70.3a322.13,322.13,0,0,0-30.4-35.7c-11.5-11.8-26.5-10.1-39.3-3-15.2,8.4-25.9,21.4-36.5,34.7-12.8,16.1-24.8,33-39.7,47.4-10.6,10.2-23,18.1-34.2,27.5a8.17,8.17,0,0,1-2.6,1.4c-6.1,1.9-21.9-11.5-21-17.9.3-2.5,2.3-3.9,4-5.5q44.4-42.3,88.8-84.8c2.2-2.1,4.3-4.2,6.3-6.5,1.1-1.2,2.1-2.7,1.2-4.5-1.1-2.3-3.2-2.4-5.2-1.8-8.9,2.7-18.4,4.3-26.5,8.5-15.9,8.2-31.7,16.4-47.9,24.1a102.42,102.42,0,0,1-21.4,7.9c-12.6,2.9-24.3,9.1-37.5,9.7-3.6.2-7.1,1.9-10.6,2.6-10.1,2.2-20.3,3.7-30.7,3.2-16.3-.7-32.8,2-48.8-1-21.5-4-43.4-6.1-64.5-12.5-2.5-.8-5.6-1-6.5-4-1.2-3.9,2.3-5.1,4.5-6.8,18.9-15.3,38.9-29.1,60.5-40.2a288.38,288.38,0,0,1,43-17.8,338.46,338.46,0,0,1,61.1-13.4,106.71,106.71,0,0,1,14.9-.6c6-.1,12,.2,17.7-2.3,2.5-1.1,5.2-.9,7.9-.5,26.2,4.3,52.5,8.1,78.6,12.6,18.3,3.2,37,3.9,55,9.3a32.3,32.3,0,0,0,16.9.1c13.6-3.5,27.9-2.8,41.3-6.3,20.1-5.2,40.8-5.5,61.1-8.8s41-1.4,61.6,1.8a424.33,424.33,0,0,1,46.6,10.2c10.7,2.9,21.7,5.4,32,10.6,7,3.5,14.8,5.5,22.1,8.6,20.6,8.7,40.3,18.8,57.2,33.7,4,3.5,7.4,7.6,11,11.6a11.71,11.71,0,0,1,2,3.4c3.5,8,1.6,11.1-7,11.5q-10.5.45-21,.6c-20.3.3-40.4,2.4-60.6,4.8-17.3,2.1-34.5-.1-51.7-2.2-14.6-1.8-28.7-5.7-42.6-9.8-6.9-2.1-13.6-5.4-20.1-8.7-16.3-8.2-32.3-16.9-48.7-24.8-12.6-6.1-26-10-39.4-13.9C1240.5,1705.3,1237.7,1705.1,1235,1706.9Z"/><path class="cls-2" d="M1376,933.3c-109,0-218-1.3-326.9.3-118.3,1.7-236.6.2-354.8,1-15.8.1-13.8,1.5-13.8-13.9-.1-29.3,0-58.7-.1-88,0-5.9,1.2-12-1.6-17.7a4.81,4.81,0,0,1,0-3.9c2.4-3.7,1.3-7.8,1.6-11.7.5-6.9-3-15.7,1.7-20.1s13.4-1.3,20.3-1.3q132-.15,264-.1c2.3,0,4.7-.2,7,0,4.6.4,6.7-1.2,6.5-6.2-.3-8,.1-16-.1-24-.1-4.2,1.2-6,5.7-5.9,35.3.8,70.6-1.4,105.9,1.2,2.7.2,5.3.1,8,.1,31.3,0,62.7-.3,94,.1,69.6.7,139.2-1.9,208.9-1.3h6c7.4.2,7.4.2,7.5,8,.1,7,.2,14,0,21-.2,4.9,1.9,6.6,6.5,6.3,2.7-.2,5.3,0,8,0h272c13.5,0,12.1-1.1,12.1,12.5v132c0,2.3-.1,4.7,0,7,.2,3.9-1.6,5.4-5.3,5.2-2.7-.2-5.3,0-8,0h-325A1.27,1.27,0,0,1,1376,933.3Z"/><path class="cls-2" d="M839.3,1602.7c22.1-1.2,42.5,2.7,63.1,3.4,7.3.2,14.6.1,21.9.7,10.8.9,20.8,4.8,30.7,8.2,11.3,3.8,23,6.5,34,11.1,8.2,3.4,9,7.2,2.4,12.7-11.8,9.9-25.4,16.3-39.6,22.2-9.5,4-19.3,7.1-29,10.1-13.5,4.3-27.2,8.5-41.3,10.8-1.6.3-3.4.1-4.9.6-19,5.6-38.5,6.7-58,8.3-20.3,1.7-40.4.2-60.7-.9-16.4-.9-32.1-4.9-47.9-8.7-9.6-2.3-19-5.9-28.2-9.6-4.9-2-9.7-4.2-14.8-5.9a9.84,9.84,0,0,1-6.8-8c-.7-4,2.5-5.7,5.3-7.5,14.8-9.6,30.7-16.5,47.3-22.8,10.6-4,21.3-7.2,32.1-10.3,14.3-4.2,28.7-8.4,43.6-9.9C805.8,1605.6,823,1600.5,839.3,1602.7Z"/><path class="cls-2" d="M1245.1,1659.9c-4,0-8,.4-12-.1-4.3-.6-5.5-3.5-3.1-7.3,13.3-20.2,26.5-40.5,42.7-58.7,18.9-21.3,40.3-39.7,63.3-56.1,13.7-9.8,28.5-18,43.5-25.9,13.8-7.2,28.4-12.7,42.7-18.6a160.8,160.8,0,0,1,24.7-7.7c14.8-3.5,29.6-7.5,44.8-9.3q3-.3,6-.3c12.8-.1,13.5,1.4,8.7,12.8-14.3,33.7-38.9,59.1-65.9,82.6-18.6,16.2-39,29.9-60.3,42.2a433.64,433.64,0,0,1-53.5,26.1c-20.7,8.4-42.3,13.5-63.8,18.8A59.36,59.36,0,0,1,1245.1,1659.9Z"/><path class="cls-2" d="M860,1546.2c.5,15.5-2.8,17.8-14.9,11.5-14.2-7.5-26.7-17.5-38.2-28.6-28.9-27.7-54.6-58.2-75.8-92.3-10.3-16.6-18.5-34.4-25.7-52.6-8.4-21.2-13.9-42.9-18.1-65.1a207.12,207.12,0,0,1-3.2-37.7c0-7.2,4.8-9.3,10.7-5.2,20.2,14.1,40,28.6,57.1,46.5,22.1,23.2,41.9,48.1,58.4,75.6,10.4,17.4,20,35.4,27,54.3,7.2,19.5,15,38.9,17.2,60.1C855.8,1524.6,859.2,1536.2,860,1546.2Z"/><path class="cls-2" d="M1700.5,1610a396.39,396.39,0,0,1-64.6-6.7c-20.9-3.8-41.8-7.8-62.1-14.1-2.5-.8-5.3-.6-7.9-1.2-5.7-1.2-7.1-4.9-3.3-9.2,4.8-5.6,10.9-9.9,17.2-13.5a222,222,0,0,1,28.4-14.3,409.52,409.52,0,0,1,43.2-15.2c15.9-4.5,32.1-8.3,48.4-11.5a291.73,291.73,0,0,1,57.4-5.7c21.3,0,42.6-.3,63.9,1.7,9.4.9,18,4.7,27.2,6,13.9,1.9,26.6,8.2,40.5,10.4,8.9,1.4,10.3,9.2,3.3,15.4-6.7,5.9-14.4,10.3-22.3,14.7-14.7,8.1-30.5,13.2-46.1,18.3-11.6,3.8-23.4,7.4-35.3,10.4-15.8,3.9-31.7,7-47.5,11a52.84,52.84,0,0,1-8.8,1.8C1720.8,1608.8,1709.5,1609.4,1700.5,1610Z"/><path class="cls-2" d="M1523.4,1555c-.4-18.4,5.3-34.9,10.5-51.3,7.2-22.8,17.1-44.5,27.2-66.1,12.2-25.9,27.9-49.6,46.2-71.6a346.57,346.57,0,0,1,63.2-59c8.3-6,17-11.5,25.6-17.1,2.6-1.7,5.5-3,8.3-.9,2.6,1.9,3.3,5,2.9,8.1-3.3,21.3-5.9,42.6-12.3,63.4-3.3,10.4-6.6,20.9-10.2,31.1-4.2,11.8-10.2,23-16.2,34.1a376.81,376.81,0,0,1-47.3,68.8c-21.4,24.7-45.1,46.8-72.6,64.8-5.3,3.4-10.7,6.7-15.9,10.2-4.9,3.2-7.9,1.6-9.1-4.2a12.31,12.31,0,0,1-.2-2C1523.4,1560.2,1523.4,1557.2,1523.4,1555Z"/><path class="cls-2" d="M1587.9,1704.2c-20.6,1.3-41.2-2.4-61.7-7.2q-27.6-6.45-55-13.9c-17.8-4.9-34-12.8-50.2-21.2-10.9-5.6-22.1-10.7-33.2-15.9-2.7-1.3-6-1.9-5.8-5.7.1-3.3,3.1-3.9,5.5-5a189.52,189.52,0,0,1,50.6-14.1c11.6-1.4,22.4-6.2,34.2-7,12.6-.8,25.3-1.5,37.6-4.6,8.1-2.1,15.9-.1,23.7.6a452.93,452.93,0,0,1,70.6,12.1c13.1,3.3,26.2,6.9,39.1,11.5,14.4,5.1,28.8,10.1,42.7,16.5a129.2,129.2,0,0,1,26.6,17.3,4.71,4.71,0,0,1,1.3,1.5c1.5,2.8,5.2,5.1,3.8,8.7-1.6,4-5.7,4-9.4,4-14.6-.1-28.1,5.5-41.6,9.5C1641,1698.9,1615.4,1705.6,1587.9,1704.2Z"/><path class="cls-2" d="M890.1,1468.7c3.3.5,7.7.9,11.9,1.9,22.9,5.7,45.7,12,67.3,21.5,46.1,20.3,88.4,46.7,125.1,81.5,15,14.2,28.4,29.9,39.1,47.6,5.8,9.5,10.2,20,15.1,30.1,1.9,4,.2,7.2-4,8.2a14.75,14.75,0,0,1-6.9-.5,195.46,195.46,0,0,0-32.2-6.5c-8.8-1-16.4-5.4-24.4-8.3-18-6.5-36.5-12.1-53.3-21.7-13.5-7.7-26.4-16.5-39.8-24.5-31.8-19-57.3-44.9-81.3-72.6-9.6-11-17.2-23.5-24.7-36-1.3-2.2-1.8-5-2.5-7.5C876.5,1471.4,878.6,1468.5,890.1,1468.7Z"/><path class="cls-2" d="M704.5,1593.8c-20.5.2-45.6-3.2-70.4-7.8-13.6-2.5-27.1-6.1-40.6-9.8-11.5-3.2-22.7-7.4-34.1-10.5-6.1-1.7-11.4-5.3-17.1-7.9-17.2-7.9-33.7-17-48.7-28.8a21.09,21.09,0,0,1-2.3-1.9c-2.3-2.5-4.2-5.5-2.8-9,1.3-3.1,4.5-3.7,7.6-3.8,23.7-.9,46.4-7.9,69.9-9.9a118.57,118.57,0,0,0,16.6-3.2c6-1.5,11.8-2,17.7.1,4,1.4,7.9.2,11.9.3,23.6.7,47.2,2.3,70.4,6.6,19.8,3.7,39.4,8.7,58.2,16.6,8.2,3.4,16.7,6.2,24.8,9.9,16.9,7.7,34,15.1,48.1,27.7a29.77,29.77,0,0,1,3.6,3.5c3.8,4.9,2.8,8.9-3.2,10.4a182.81,182.81,0,0,1-19.6,3.6c-6.6.9-13,2.7-19.4,4.3C753.5,1589.6,731.9,1595.2,704.5,1593.8Z"/><path class="cls-2" d="M1775.2,636.1c.1,4.2-1.9,6.2-6.3,5.4a47.94,47.94,0,0,1-13.2-4.5c-18.4-9.6-34.7-22.1-49.7-36.3-17.9-16.9-35.3-34.5-48.7-55.2a375.06,375.06,0,0,1-25.9-46.9A281.64,281.64,0,0,1,1620,469c-5-15.8-9-32-9.9-48.7-.7-13.9-.8-27.9-.6-41.9.1-4.8-.9-11.3,4.3-13.5s8.9,3.2,12.6,6.1a374.2,374.2,0,0,1,69.5,73.8c15.7,22.2,30.5,44.8,41.9,69.8,7,15.5,12.2,31.5,18.4,47.3,3.2,8,3.7,16.8,6.2,25.1,4.8,15.5,8.2,31.4,12.3,47.2A13.32,13.32,0,0,1,1775.2,636.1Z"/><path class="cls-2" d="M1904,1332.3c.7,0,1.3-.1,2-.1,11.3-.3,14.5,4.8,9.5,14.9-15.9,32.2-39.4,58.2-67.1,80.6a366.42,366.42,0,0,1-65.3,41.9,398.41,398.41,0,0,1-65.5,25.9c-18.4,5.4-37.3,6.2-55.7,10.2a15.14,15.14,0,0,1-3,.2c-6.3-.1-7.6-1.8-6.1-7.9,1.9-7.7,7.3-13.4,11.5-19.7,17.9-26.7,39.6-50.1,64.1-70.8a352.44,352.44,0,0,1,59.2-40.2c13.2-7.2,27-12.7,40.7-18.6,7.8-3.4,16.4-5.7,24.7-7.6C1869.8,1337,1886.7,1333.5,1904,1332.3Z"/><path class="cls-2" d="M804.4,375.6c-1,17.2-2.5,34.3-6.1,51.3a288.22,288.22,0,0,1-18.8,58.6c-9.7,21.8-21.6,42.5-38.4,60.1s-33.8,34.7-52.6,50.2c-12.9,10.6-26.4,20.1-41.8,26.8-8.4,3.6-14.2.5-14.2-8.6,0-6.6.4-13.5,2.4-19.7,2.5-7.9,4.9-15.9,7.9-23.6a876.76,876.76,0,0,1,43.4-93.9c12-22.6,27.6-43,43.9-62.7,14.7-17.7,30.2-34.5,48.5-48.6,5.2-4,10.3-8.4,15.9-12,6-3.9,9.4-2,9.8,5C804.7,364.3,804.4,369.9,804.4,375.6Z"/><path class="cls-2" d="M481.2,1312c25.9,3.5,49.3,8,71.8,16.9,14.2,5.7,28.3,11.6,41.6,18.8a388.32,388.32,0,0,1,74.8,52.4c20.2,18.2,37.6,38.5,51,62.2,3.3,5.8,5.9,11.9,8.7,17.9a8.9,8.9,0,0,1,.1,7.8c-1.1,2.3-2.7,3.6-5.6,2.8-18.4-5.5-37.4-8.6-56.3-12.2-23.6-4.6-45.5-13.5-66.4-25.6-35.8-20.7-66.1-47.8-93.8-78.1-12.3-13.5-22.4-28.9-30.9-45.1a22.19,22.19,0,0,1-2.2-7.6C472.9,1314.3,475.6,1311.6,481.2,1312Z"/><path class="cls-2" d="M1831,821.7c-14.1-1.2-26.9-6.1-39-12.3-28.7-14.7-52.5-36.1-76.6-57-10-8.7-21.2-16-29.5-26.8-15.8-20.6-30.3-42-44.4-63.7-8.4-12.9-10.9-28.4-15.3-43-1.6-5.4-3.4-10.8-5.3-16.1-1.6-4.6,1-7.2,5.7-5.8a300.1,300.1,0,0,1,41.7,15.8c36.1,17.3,67.3,41.2,94.6,70.1a354,354,0,0,1,47,61.7c10.4,17.5,18.6,35.9,25.9,54.8a77,77,0,0,1,3.4,12.5C1840.6,818.8,1837.8,821.8,1831,821.7Z"/><path class="cls-2" d="M788,593.3c-2.5,7.5-4.9,16.9-8.7,25.7-13.6,31.3-33.5,58.6-55.6,84.4a335.94,335.94,0,0,1-84.4,70.9,191.81,191.81,0,0,1-40.9,18c-9.1,2.8-18.4,5.6-27,10-5.5,2.8-8.9.8-9.2-5.4-.2-4.1,1.3-7.9,2.5-11.7,6.2-20.5,16.5-39,28.2-56.8,20.1-30.8,45-57.5,72-82.3a231,231,0,0,1,44.4-32c15.6-8.7,31.2-17.2,48.4-22.9,6.8-2.3,13.6-4.9,20.6-6.9S788.2,584.3,788,593.3Z"/><path class="cls-2" d="M2050.4,780c-.3,27.2-5,53.4-15.2,78.7-4.8,12-9.4,24-15.1,35.7a242.82,242.82,0,0,1-38.7,57.5c-17.5,19.2-36.1,37.2-57.3,52.3-5.1,3.7-10.4,7.1-15.8,10.4-3.3,2-7.1,2.5-10.5.5-3.6-2.1-4-5.6-3.4-9.6,2.1-15.1,3.4-30.4,6.1-45.4a287.12,287.12,0,0,1,11.3-42.3c4.3-12.6,9.8-24.6,15.3-36.7,8.8-19.2,21.6-35.7,34.5-52.1a438.14,438.14,0,0,1,39.4-43.5c9.6-9.3,20.5-16.9,31.6-24.1a45.35,45.35,0,0,1,6.2-3.2c8.3-3.7,11-2.1,11.3,6.8C2050.5,770,2050.4,775,2050.4,780Z"/><path class="cls-2" d="M1821.5,1326.3c-1,0-2,.1-3,0-4.2-.5-9.2.3-11.2-4.8-1.8-4.6,1.3-7.9,3.7-11.6,8.1-12.2,16-24.4,23.3-37.1,12.7-21.9,29.9-39.7,48.9-56.1a214.22,214.22,0,0,1,39.3-27c11.6-6.2,23-12.9,35.1-18.5,13.5-6.2,27.1-12.6,41-17.8s27.8-11.2,43.3-10.1a40.47,40.47,0,0,1,6,.5c4.9,1.1,6.6,4.1,4.5,8.9a234.19,234.19,0,0,1-23,41.6c-18.5,26.2-39.9,49.7-65,69.8-9.1,7.3-19.4,12.8-29.4,18.6a358.82,358.82,0,0,1-38,19.6c-17.5,7.7-34.8,16.3-53.9,19.7C1835.7,1323.3,1829,1327.1,1821.5,1326.3Z"/><path class="cls-2" d="M444.3,666.1c1.6-17.4,2.1-34.8,6.7-52.1,3.6-13.9,9-27.9,9-42.7,0-2.9,1.2-5.2,4-6.3,3.2-1.2,4.9,1.1,6.6,3.1,10.9,12.6,20.6,26,28.2,40.9,6.4,12.7,13.6,25,19.3,38,3.7,8.4,8.1,16.7,10.1,25.9,2,9.4,5.7,18.4,8.6,27.4,8.4,26,7,51.6,1.7,77.6a230.74,230.74,0,0,0-3.4,24.6c-1.6,16.8-6.1,33.3-7.5,50.2-.8,9.3-4.5,10.7-12.5,5.4s-13.4-12.9-18.5-20.7c-9.5-14.4-16.5-30.1-23.2-46-11.9-28.3-19.2-57.8-26-87.5C444.6,691.6,445.3,678.8,444.3,666.1Z"/><path class="cls-2" d="M1862.1,793.2c0-17-.1-34,3.6-50.7,3-13.2,5.8-26.5,10.2-39.5,4.7-13.8,9.5-27.4,16-40.5,7.6-15.2,17.2-29.2,26.5-43.3,6-9.2,12.1-18.2,17.9-27.5,4-6.5,6.4-6.4,10.6-.3,7.8,11.3,10.2,24.6,12.4,37.5,4.3,24.6,3.6,49.7,2.5,74.6-.4,9.2-2.6,18.3-4.8,27.4-3.1,13.3-7.8,26-11.2,39.2-2.1,8-5.9,15.5-9.1,23.1-5.9,14.1-12.1,28.1-20,41.1-8.8,14.4-17.9,28.8-29.9,40.9a16.76,16.76,0,0,1-4,3c-5.5,3-9.1,1.6-10.4-4.4-5.7-24.8-12.1-49.6-10.4-75.6C1862.1,796.6,1862.1,794.9,1862.1,793.2Z"/><path class="cls-2" d="M627.6,531.2c-.7,10.7,1.4,23.7-1.2,36.6-4.5,22.4-8.8,44.8-17,66.4-6.5,17.4-13.7,34.3-22.7,50.5a127,127,0,0,1-8.1,12.5c-4.2,5.8-7.7,5.4-10.5-1.5-2.3-5.5-3.9-11.3-5.8-17-4.1-12.6-8.2-25.2-12.2-37.9-3.8-11.8-5-24-6.6-36.2-3.2-24.5-2.3-49.2-1.7-73.8.4-17,4.7-33.5,9.8-49.7,3-9.5,6.2-18.9,9.7-28.2,6.2-16.5,14.4-32,23.4-47.1a11.53,11.53,0,0,1,5.9-5.2c4.5-1.9,8.3-.4,9,4.5,2.8,19,14,34.9,19.2,53,4.2,14.7,8.1,29.5,8.8,44.8C627.9,511.7,627.6,520.3,627.6,531.2Z"/><path class="cls-2" d="M1733.6,1262.2c.3-15.1-1.1-29.2,1.9-43,2.8-13.3,5.1-26.7,10.1-39.5,3-7.7,5.1-15.7,8-23.5,8.4-23.2,19.7-44.9,32.4-65.8a147.1,147.1,0,0,1,19.4-25.2c1.9-1.9,3.9-4,6.9-2.9s3.3,3.7,4,6.4c5,20.3,7.8,41.1,13.2,61.3,2.1,7.9,2.1,16.4,4.4,24.5a7.5,7.5,0,0,1,.2,3c-3.7,24.2-4.9,49-12,72.6-9.1,29.9-20.3,59-36.2,86a215.32,215.32,0,0,1-27.9,37.4c-4.8,5.1-10.1,3.8-11.7-2.9q-5.85-24.75-11-49.5C1732.3,1287.7,1734.2,1274.3,1733.6,1262.2Z"/><path class="cls-2" d="M350.2,746.5c-.1-2.7-.1-4.3-.3-6-.4-3.7-.7-7.6,3.1-9.8,4-2.3,8-.5,11.2,1.8,11.5,7.9,23.1,15.7,33.2,25.5,19.4,18.8,37.8,38.3,53.5,60.3,7.6,10.6,13.1,22.3,18.7,34a297.4,297.4,0,0,1,19.5,52.1c5.8,21.8,11.3,43.8,11.2,66.7a69.77,69.77,0,0,0,1.4,12.9c.6,3.2.1,6-2.8,7.9s-5.6,1.1-8.4-.7A267.38,267.38,0,0,1,453,961.5c-19.7-18.5-37.4-38.8-53.9-60.1-7.1-9.2-12.4-19.7-17.6-30.1a260.56,260.56,0,0,1-19.3-50.1c-4.9-18.2-10.9-36.4-10.8-55.6C351.4,758.7,349,752.2,350.2,746.5Z"/><path class="cls-2" d="M2047.4,967.6c-.4,2.6-.5,7-1.7,11.1-5.3,18.8-10.3,37.7-17.9,55.8a363.62,363.62,0,0,1-24.5,48.7c-4.8,7.9-9.9,16-16.3,22.6-19.3,20.1-38.1,40.9-60.7,57.5a328.93,328.93,0,0,1-43.8,27.1c-3.2,1.6-6,4.2-9.1,6-6.3,3.4-10.9.9-10.6-6.1a83.66,83.66,0,0,1,2.8-18.7c3.6-12.1,6.7-24.2,11-36.1,9.3-25.4,21.9-48.8,36.5-71.4,15.2-23.6,33.4-44.6,53.7-63.8a242.29,242.29,0,0,1,49.9-35.9c5.7-3.1,12-5.4,18.2-7.7C2043.7,953.3,2047.3,956.4,2047.4,967.6Z"/><path class="cls-2" d="M522.6,1175.5a26.77,26.77,0,0,1-8.9-3c-26.8-13.9-49.6-33.2-71.6-53.5-16.2-14.9-31.2-30.8-42.7-49.8-14.9-24.4-28.9-49.1-34.5-77.7-2.3-11.7-5.1-23.4-6.7-35.2-.6-4.5-2.4-8.9-3.9-13.3-1-2.8-2.2-5.6-2.2-8.7,0-5.6,3.6-8.1,8.5-5.6,15,7.7,29.9,15.5,43.3,26,25.4,20,48.6,42.3,68.1,68.1,11.2,14.8,21.5,30.2,29,47.4,4,9.1,8.9,18.1,11.6,27.4,3,10.8,6.8,21.5,8.8,32.6,2.1,12.1,5.7,23.9,8.3,35.9C531,1172.8,528.8,1175.6,522.6,1175.5Z"/><path class="cls-2" d="M1867.9,563.6a264.24,264.24,0,0,1-2.7,53.2,219.21,219.21,0,0,1-10.1,39.4c-6.2,17.8-14.6,34.9-17.2,53.8-.4,3.1-1.2,6.1-4.4,7.3-3.6,1.4-5.3-1.8-7.6-3.6-3.6-2.7-5-6.9-7.2-10.7-5.5-9.5-10.5-19-13.6-29.7-2.1-6.9-4.9-13.7-7.5-20.5-4.6-12.2-5.4-25.4-10-37.5-4-10.5-3.7-21.6-5.1-32.4-3.6-27.3-.5-54.3,5.7-81q4.95-21.3,11.1-42.3c3.7-12.4,9.4-24.1,15.5-35.4,3.4-6.3,10.8-5.9,14,.8,5.9,12.2,11.3,24.7,16.9,37.1,2.7,6,5.4,12,8,18.1A187.09,187.09,0,0,1,1867.9,563.6Z"/><path class="cls-2" d="M572.4,1305.7c-4.2-.7-8.7-1-12.7-2.3-17.6-5.7-35.5-10.3-52.7-17.9a487.63,487.63,0,0,1-58.7-30.6,115.69,115.69,0,0,1-19.7-15.1c-23.5-22.5-46.8-45.3-65.6-72.1-9-12.8-17.6-25.8-21.8-41.1-.7-2.6-2.3-5.1-.3-7.5,2.2-2.6,5.2-2.1,8.3-1.3,23.4,6.3,46.8,12.5,69.5,20.7,19,6.8,37.4,15.3,54.1,26.6a165.78,165.78,0,0,1,23.6,19.9c20,20,40.1,39.8,57,62.6,10.9,14.7,20.8,29.9,26.5,47.5C582.3,1302.2,579.9,1305.6,572.4,1305.7Z"/><path class="cls-2" d="M562.3,1133.3c-2.1-23.6,3.9-46.3,11.6-68.8a68,68,0,0,0,2.5-12.7c.9-5.5,4.3-8.4,8.4-8.3,4.8.2,6.8,3.1,8.1,7.4,3.5,11.9,11,21.9,17.4,32.2,11.5,18.7,23.3,37.2,31,57.8,5.6,14.9,9.5,30.6,10.3,46.6.8,15.3,5,30.2,4.9,45.5-.1,15,.9,30-.2,44.9-.7,10.1-3.8,20.2-6.7,30.1-2.4,8.3-5.3,16.4-6.7,25a13.79,13.79,0,0,1-.8,2.9,7.62,7.62,0,0,1-7.6,5.4c-3.8,0-6.5-1.8-7.3-5.6-2.4-12.6-11.3-21.6-17.9-31.8-9.2-14.2-19.1-28.2-24.1-44.4-3.7-12-7.3-24.2-10.7-36.3-3.5-12.5-5.9-25.2-8.5-37.8A209.71,209.71,0,0,1,562.3,1133.3Z"/><path class="cls-2" d="M521.6,1013.7c-.7-18.2,1.8-37.1,5.4-55.6a211.88,211.88,0,0,1,10.5-35.2,279.86,279.86,0,0,1,18.7-39.5,277,277,0,0,1,36-49,345.39,345.39,0,0,1,40.2-37.2A45.44,45.44,0,0,1,638,793c6.9-4,11.5-1.5,12,6.6a263.55,263.55,0,0,1-8.3,83c-6.7,26-15.4,51.6-27.5,75.7-15.3,30.4-32.3,59.6-59.3,81.5-5.9,4.8-11.9,9.7-19.1,12.4-6.5,2.4-8.9,1.3-11.6-5.1a31.93,31.93,0,0,1-2.6-12.6Z"/><path class="cls-2" d="M1753.6,851.3c0-9.7-.1-19.3,0-29a46.68,46.68,0,0,1,.7-9.9c1-5.2,4-6.6,8.7-4.1,7.1,3.8,13.2,8.9,19,14.5,19.5,18.8,35.3,40.4,49.8,63.2a280.79,280.79,0,0,1,25.5,49.3,210.18,210.18,0,0,1,10.9,40.3c5,29.1,3.8,58.4,4.2,87.6,0,1,.1,2,.1,3-.4,6.7-4.2,8.9-9.9,5.1a149,149,0,0,1-19-14.5,329.3,329.3,0,0,1-51.8-62.8c-10.1-15.7-19-32-25.3-49.5-5.6-15.5-10.8-31.2-11.4-48.3C1754.5,881.2,1753.7,866.3,1753.6,851.3Z"/><path class="cls-8" d="M1208.3,601.8c31.2,4,57.8,30.4,61.4,61,.4,3.1,2.8,7.9-2.5,9.1-5.8,1.3-4.8-3.8-5.5-7.1-4.5-20.4-15.7-35.7-34.1-45.7-3.2-1.7-6.3-3.6-11-3.6,5.7,10.9,10.3,21.7,12.3,33.4.9,5.2,1.8,10.5,2.6,15.8.3,2.3.7,5-2.6,5.5-3.6.6-4.4-1.8-4.7-4.8a113,113,0,0,0-7.8-33.9,104.77,104.77,0,0,0-6-11.5c-3.8-6.4-9-8.9-16.6-8.4-5.5.4-9.5,2.2-12.6,6.6-6.8,9.4-10.4,20.1-12.8,31.2a146.63,146.63,0,0,0-2.2,14.8c-.4,3-.2,6.5-4.6,5.9-4-.5-2.9-3.8-2.6-6.3,2-15.2,5-30.2,12.7-43.9.4-.8,1.2-1.6,0-3.1-20.8,9.1-33.6,24.9-38.9,47-.5,1.9-.5,4-1,5.9-.6,2.5-2.8,2.4-4.8,2.3s-2.9-1.4-2.8-3.3a40.21,40.21,0,0,1,.3-6c3.8-30.6,30.4-57,61.5-61C1193.3,598.5,1200.8,597.7,1208.3,601.8Z"/><path class="cls-9" d="M1195.9,676h74.8c6.7,0,7.4.9,7.1,6.4-.2,3.3-1.7,4.8-4.9,4.9-2.3,0-4.7.1-7,.1H1126.3c-2,0-4-.1-6,0-4,.1-6-1.4-6.1-5.8s1.9-5.6,6-5.6c17.3.1,34.6.1,51.9.1C1180,676,1187.9,676,1195.9,676Z"/><path class="cls-9" d="M1269.7,714.2c0,6.6-.1,13.3,0,19.9.1,3.9-2,5.2-5.6,5.2s-4.5-1.9-4.5-5c0-13.3.1-26.5,0-39.8,0-3.5,1.7-4.5,4.9-4.5s5.2.7,5.1,4.3C1269.7,700.9,1269.7,707.6,1269.7,714.2Z"/><path class="cls-9" d="M1132.3,714.1V734c0,3-.6,5.2-4.3,5.2-3.4,0-5.8-.9-5.8-5,.1-13.3.1-26.5,0-39.8,0-3.5,1.7-4.6,4.9-4.5,3,0,5.2.6,5.1,4.3,0,6.7.1,13.3.1,19.9Z"/><path class="cls-10" d="M1110.2,401.8a4.07,4.07,0,0,1,1.8.5c1.3.9,3,.6,4.3,1.5a19.35,19.35,0,0,1,14.5,7.4c3.1,3.8,6.2,4.9,10,1.7s7.4-1.7,11.2-.7c1.1,3.8-2.9,2-3.9,3.5-1,.4-2,.8-1.9,2.2,1.1,2.4-.9,2.9-2.2,4-6.9,4.6-14.1,6.8-21.9,2.2-1-2.7-6.3,1.2-5.8-3.8,4.8-1.6,4.9-4.7,2.4-8.3-2.1-3.1-5.4-4.6-8.6-6.3-.8-.5-1.6-1-2.4-1.4a2,2,0,0,1-1.4-.6C1106.4,400.4,1108.2,400.9,1110.2,401.8Z"/><path class="cls-11" d="M951.4,442.5c-2.7-8.2-7.7-12.6-12.1-17.3-5.6-6-9.5-5.8-14.4.4-3.2,3.9-6.6,7.5-11.9,9.5-1.5-3.7.4-6.8,2.3-8.9,3.6-3.9-1.8-3.8-2-5.9,5.3-1.6,10.7-3.1,15.9-4.8,4.4-1.4,10-3.9,13-.3C948,422.3,956.6,429.1,951.4,442.5Z"/><path class="cls-11" d="M1065,507.1a64.16,64.16,0,0,0-12.2-16c-6.3-6.5-9.4-6.4-15.1.3-3,3.5-6,7-10.6,8.6-4.3-4.6,6.9-10.4-4.2-15.2,7.9-.5,13.4-1.3,18.4-3.4,4-1.7,9.4-3.8,12.4-1.2,4.2,3.8,9.8,6.9,11.5,13.2C1066.2,497.2,1066.7,500.9,1065,507.1Z"/><path class="cls-11" d="M973.7,515.7c-10.2,8.6-20,1.4-30.5-.2,3.1-2.7,8.7.4,9-5.1.2-4.4-3.6-6-6.7-7.9-1.7-1-3.5-1.9-5.3-2.8-.4-1.9.1-2.9,2.2-2.2,7.7,2,15.7,3.3,21,10.2,1.1,1.4,2.6,2.2,4.4,1.4,3.5-1.7,6.8-4.3,11.1-2.6,3.7,1.5,7.8.9,11.7,2.1-3.9,2.2-8.3.9-12.4,1.6C975.8,511.3,976.2,514.6,973.7,515.7Z"/><path class="cls-12" d="M1189.5,712.8v1c-.4,3.2,1.5,7.6-1.5,9.4-3.6,2.2-8.4,1.1-12.7.7-2.6-.2-2.7-2.5-2.7-4.5-.1-3.7-.2-7.3,0-11,.2-2.8-1.5-6.7,2.3-7.8a24.19,24.19,0,0,1,12.8.1c1.4.3,1.7,1.9,1.8,3.3,0,2.8-.1,5.8,0,8.8Z"/><path class="cls-13" d="M1251.8,712.1V717c-.2,7-.2,7-7.3,7.1-8.6.1-8.6.1-8.7-8.6v-6.9c.1-8.7.1-8.7,8.8-8.6C1251.8,700.1,1251.8,700.1,1251.8,712.1Z"/><path class="cls-14" d="M1220.2,712v4c-.2,8.1-.2,8.1-8.2,8.1-7.7,0-7.7,0-7.9-7.5-.1-2.6,0-5.3,0-7.9.1-8.8.1-8.8,8.7-8.6C1220.2,700.1,1220.2,700.1,1220.2,712Z"/><path class="cls-15" d="M1141.7,711.6a13.35,13.35,0,0,1,0-2c.4-3.1-1.6-7.7,1.9-9s7.8-.5,11.7-.3c2.1.1,2.4,2,2.5,3.7.1,4,.1,7.9.1,11.9-.1,8.2-.1,8.2-8.2,8.2C1140,724,1141.9,723.9,1141.7,711.6Z"/><path class="cls-16" d="M1188,569.9a4.1,4.1,0,0,1,.1-1.1,3.16,3.16,0,0,1,1.9-2.3c5.1-1.5,10.2-1.3,15.4-.4a5.63,5.63,0,0,1,2.6,1.7c0,3.4,0,6.9.1,10.3a8.79,8.79,0,0,1-1,.6,2.33,2.33,0,0,1-1.7-1c-1.7-.4-1.4,2.2-3,2-4.1,1.2-8.2,1.4-12-.8C1187.6,576.3,1190.4,572.5,1188,569.9Z"/><path class="cls-17" d="M1206.1,577.9a12.25,12.25,0,0,1,1.9.2c2.8,3.2,7.3,5.4,1.3,10.6-3.4,2.9-1.1,8.6-1,13.1a140.85,140.85,0,0,1-22.5,0c3.6-3.4,1.7-7.9,2.3-11.9.4-.2.7-.4,1.1-.6a4.65,4.65,0,0,1,2.3.9,10.8,10.8,0,0,1,1.6,2,23.4,23.4,0,0,1,.9,2.4c3.5,3.6,6.8,6.7,8.5-1.3a15.77,15.77,0,0,1,1.1-3.7c.2-.8.5-1.6.7-2.4.8-2.4.4-4.9.6-7.3A2.84,2.84,0,0,1,1206.1,577.9Z"/><path class="cls-18" d="M1200.7,547.7c3.8.5,8.4.4,5.4,6.5-.6.5-1.2,1-1.8,1.6a10.36,10.36,0,0,1-3.3,1.7,16.74,16.74,0,0,1-6.3.3,7.54,7.54,0,0,1-2.4-.8c-1.1-.7-1.3-2.1-2.3-2.9-2.9-6.1,1.6-6,5.4-6.5A4.22,4.22,0,0,1,1200.7,547.7Z"/><path class="cls-19" d="M1200.7,547.7h-5.4c-4.4-6.6-.2-12.5,1.5-20.1C1200.1,534.9,1203.5,540.7,1200.7,547.7Z"/><path class="cls-20" d="M1148,415.8c1.3-1.2,2.6-2.4,3.9-3.5h15.8C1161,418.2,1154.3,415.5,1148,415.8Z"/><path class="cls-21" d="M1188.1,568.8a4.62,4.62,0,0,0-.7-.7c-7.7-7.1-7.6-7.6,2.5-12.5a1.7,1.7,0,0,1,2.2.4l-.1-.1c.9,3.7-3.1,5.9-2.7,9.5a3.45,3.45,0,0,1-1.4,2.1A1.91,1.91,0,0,1,1188.1,568.8Z"/><path class="cls-22" d="M1188.1,589.9a13.25,13.25,0,0,1-2.5-1.6c-4.8-4.3-4.8-4.3-.1-8.7a13.09,13.09,0,0,1,2.4-1.7c.3.3.6.5.9.8a5.19,5.19,0,0,1,.5,2.4c-.1,2-.1,4.1-.1,6.1a4.89,4.89,0,0,1-.8,2.3Z"/><path class="cls-23" d="M1110.2,401.8c-1.5.3-3.1.3-4,1.8-3.7-1.5-6.8-3.7-8.3-7.6l.2-.2C1102.7,396.6,1106.5,399.2,1110.2,401.8Z"/><path class="cls-24" d="M1116.2,420.3c1.3,2.3,4.7,1.2,5.8,3.8-4.4-.1-8.9.4-12.7-3.1C1111.8,419.1,1114,420,1116.2,420.3Z"/><path class="cls-25" d="M1202,555.9a2.74,2.74,0,0,1,2.4-1.7,7,7,0,0,0,1.7,1.3c1.6,1.2,3.5,2.1,3.9,4.4l-1.2.9C1205.3,561,1202,560.7,1202,555.9Z"/><path class="cls-26" d="M942.4,497.6c-.7.7-1.5,1.4-2.2,2.2a10.34,10.34,0,0,1-6.5-5.4l.7-.7A13.78,13.78,0,0,1,942.4,497.6Z"/><path class="cls-27" d="M973.7,515.7c.7-2.5-.2-6.2,4.5-5.4C977.7,512.9,978.3,516.4,973.7,515.7Z"/><path class="cls-28" d="M1143.9,421.9c.7-1.3,1.5-2.7,2.2-4,1.5.3,3.6.6,2.8,2.7S1145.7,421.9,1143.9,421.9Z"/><path class="cls-29" d="M1188,569.9c3.7,1.7,1.7,5.2,2.5,7.8a1.62,1.62,0,0,1-2.1.7l-.5-.5C1187.9,575.2,1187.9,572.5,1188,569.9Z"/><path class="cls-30" d="M1207.9,567.8l-1,.1-1-.1a3.46,3.46,0,0,1-.9-2.6c.9-2.5,2.2-4.3,5.2-3.4a2.25,2.25,0,0,1-.1,2.6C1209.4,565.5,1208.6,566.7,1207.9,567.8Z"/><path class="cls-23" d="M1116.2,403.8a4,4,0,0,1-4.3-1.5A4.74,4.74,0,0,1,1116.2,403.8Z"/><path class="cls-31" d="M1210.1,564.4l-.3-2.7c-.6-.5-.7-.9-.5-1.3a1,1,0,0,1,.7-.5h-.1C1213.4,561.4,1212.8,562.9,1210.1,564.4Z"/><path class="cls-23" d="M1097.9,396.1c-.9-.1-1.4-.6-.9-1.1s1,0,1.1.9Z"/><path class="cls-23" d="M1107.6,404.3a2.29,2.29,0,0,1,2.4,1.4A2.51,2.51,0,0,1,1107.6,404.3Z"/><path class="cls-32" d="M1192.1,556a17,17,0,0,1-2.2-.4v-1.5A2.35,2.35,0,0,1,1192.1,556Z"/><path class="cls-32" d="M1206.1,555.6c-1,0-1.6-.3-1.7-1.3a4.88,4.88,0,0,1,1.7-.1Z"/><path class="cls-26" d="M933.7,494.3c-.4-.4-1.2-1.1-1.2-1.1.9-1.3,1.4-.3,1.9.5C934.4,493.6,933.7,494.3,933.7,494.3Z"/><path class="cls-7" d="M1691.2,959.5h34c11.6.1,13.1,1.6,12.6,13.6-.3,7.6-1.1,15.3-1.8,22.9-1.3,14.6-1.2,29.5-4.3,43.7-3.2,14.5-4.7,29.4-8.8,43.8-3.2,11.4-6.8,22.8-9.1,34.5-1.6,8.1-5.3,15.7-8,23.5a430.52,430.52,0,0,1-18.4,45.1c-8.4,17.3-17.5,34.2-27.5,50.7a524.93,524.93,0,0,1-67.6,88.7c-1.4,1.4-2.6,3.1-4.1,4.4-4.8,3.9-6.6,4-11.1-.5q-27.6-27.45-55-55.2c-5.8-5.9-5.8-8.8.4-15.2a393.13,393.13,0,0,0,37.1-44.4,449.19,449.19,0,0,0,38.6-63.8c8.6-17.6,16.7-35.5,22.7-54,6.4-19.8,14-39.5,15.5-60.6.2-3.3,1.5-6.5,2.5-9.6a87.56,87.56,0,0,0,3.3-21.6c.4-12,1.3-23.9,2.3-35.9.6-7.6,3-9.8,10.9-9.9,11.8-.4,23.8-.2,35.8-.2Z"/><path class="cls-7" d="M1190.3,1445c0,12,.1,24,0,36-.1,8-1.3,9.5-9.3,9.4-15.6-.2-31.3.3-46.6-3.8a73.38,73.38,0,0,0-18.7-2.6,45.84,45.84,0,0,1-14.7-2.5,175.12,175.12,0,0,0-17.4-4c-11.3-2.3-22.5-5.5-33.6-8.8s-22.1-6.9-32.9-11c-11.5-4.3-22.9-8.8-33.9-14.1-19.4-9.3-38.7-18.8-57.2-30.1-35.9-21.9-69.5-46.7-99.7-76.1-5.9-5.8-6-7.8,0-13.9q23.55-23.85,47.1-47.5c5.7-5.7,8.5-5.7,14.3,0,28,28,60.1,50.4,94.7,69.2a424.54,424.54,0,0,0,67.3,29.4c10.6,3.6,21.4,7.6,32.1,10.1,15,3.6,30.1,7.4,45.7,9.4,17.2,2.2,34.2,4.5,51.5,4.7,9.8.1,11.3,2.3,11.4,12.2-.1,11.3-.1,22.7-.1,34Z"/><path class="cls-7" d="M1202.6,1445.2c0-10.7-.1-21.3,0-32,.1-12.3,2.1-14.9,14.6-14.5,17.5.6,34.3-3.7,51.5-5.1,14.4-1.2,27.8-6.1,41.8-8.6,9.5-1.7,19.5-4.3,28.4-8.8a19.53,19.53,0,0,1,18.2-.2c1.8.9,4,1.2,5.5,2.4,9.3,8.4,18.9,4.5,27.6-.3,14.7-8.3,30.2-15.4,44.2-24.9,11.7-8,21.2-18.1,27.7-30.8,4.9-9.5,10.3-18.5,19.5-24.8,5.4-3.7,10.1-8.6,15-13.1,6.9-6.3,9.9-6.3,16.7.5,5.6,5.7,11.1,11.5,16.8,17.1,12,12,24.2,23.8,36.2,35.8,6.3,6.3,6.5,7.6,0,13.6a535.43,535.43,0,0,1-82.8,62.3,543.4,543.4,0,0,1-55.3,29.5c-12.8,5.9-26.2,10.9-39.5,15.9a471,471,0,0,1-51.1,15.9c-15,3.7-30,8.9-45.8,9.2a30,30,0,0,0-7.9,1c-23.2,6.4-46.9,4.9-70.5,5.4-8.9.2-10.6-1.7-10.7-10.5C1202.5,1468.5,1202.6,1456.8,1202.6,1445.2Z"/><path class="cls-7" d="M656.1,967.5c-.5-4.3,1.4-7,5.3-8.5,4.8-1.9,12.8-.7,15.1,2.2,1.4,1.8,1.2,3.7.3,5.6-4.8,10.5-2.3,21.6-2.8,32.5a8.72,8.72,0,0,0,.7,3.9c.5,1.1,1,2.7,2.7,2.4a4.06,4.06,0,0,0,2.3-1.5c1.5-2.6,2.8-5.3,4.1-8,1.4-3,2.8-6.1,5.2-8.5,4.8-4.7,9-4.3,11.5,2,3.4,8.3,8.9,15.6,11.4,24.4.5,1.6,1.3,3.5,3.2,3.3,2.4-.2,2.7-2.4,3-4.4.5-3.3-1.3-8.5,4.1-8.6,4.8-.1,4.3,5.2,5.6,8.4,2.2,5.6,4.6,11,8.5,15.7,2.6,3,4.6,5.8,8.5,1.2,3-3.5,6.1-1.6,6,2.1-.4,11.2,2.7,20.6,10.9,28.4,1.1,1,1.3,3.1,1.6,4.7,5.3,25.1,14.9,48.7,25.2,72.1,19,42.9,44.8,81.3,76,116.3,5.1,5.7,4.9,7.9-.6,13.4-15.9,15.8-31.9,31.9-47.9,47.9-4.6,4.7-8.5,4.5-13.5-1.1-8.7-9.7-17.3-19.3-25.4-29.5a547.54,547.54,0,0,1-86.3-152.7c-5.9-16.2-11.8-32.5-16-49.1-3.6-14-9-27.8-9.2-42.7-.1-6.5-3-12.9-4.2-19.4-2.3-12.5-1-25.3-3.3-37.8C657.2,977.4,656.8,972.4,656.1,967.5Z"/><path class="cls-7" d="M1190.3,1340.2c0,10.7.1,21.3,0,32-.1,9-2.8,11.5-11.4,10.9-14.3-1-28.6-2-42.8-3.2a47,47,0,0,1-9.8-1.8c-7.3-2.3-14.9-3.3-22.4-4.5-10.7-1.8-21.3-4.9-31.8-8.1s-20.7-7-30.8-11c-11.4-4.5-22.8-9.1-33.7-14.5a448.31,448.31,0,0,1-70.4-43.1c-13.3-10.1-25.9-20.9-38.2-32.2-5.9-5.4-6.1-8-.2-14,9.1-9.3,18.5-18.3,27.7-27.5,3.8-3.8,7.5-7.6,11.2-11.4,3.9-4,7.9-5.1,13.5-2.7,8.8,3.7,16.9,9.2,26.7,10.6,4.6.7,7.9,4.8,11.6,7.6a350.55,350.55,0,0,0,62.4,37.1,323.76,323.76,0,0,0,42.5,16.4c12.5,3.8,25.3,7.6,38.6,9.5,16.5,2.3,32.7,5.7,49.5,5.8,6.2,0,7.7,2.2,7.8,9.1.1,11.6-.1,23.3,0,35Z"/><path class="cls-7" d="M1586,959.5c11,0,22-.1,33,0,9.5.1,10.9,1.6,10.7,11.3a163.63,163.63,0,0,1-3.1,28.7c-1.4,6.8-2.8,13.7-2.8,20.7a54.55,54.55,0,0,1-3.8,19.5,31.9,31.9,0,0,0-1.9,6.7c-2,15.2-7.8,29.3-12.2,43.9a330,330,0,0,1-15.8,40.5,399.37,399.37,0,0,1-27,49.8c-1.4,2.2-2.6,4.6-3.9,7s-3,4.6-6.1,4.2-4.6-2.6-5.4-5.3-1.2-5.9-2.2-8.7c-1.3-3.4-3-6.7-4.5-10-1-2.2-1.7-4.5-4.8-4.1-2.7.4-3.7,2.6-4.4,4.9-1.9,6-1,12.5-3.6,18.5-1.7,3.9-2.3,8.2-5.3,11.7s-3.6,7.3.1,10.7c4.1,3.8,4.3,8.8,5,13.7a10.52,10.52,0,0,1-2.8,9.2c-5,5.3-9.9,10.8-14.8,16.2-3.3,3.6-7,5-11.5,2.3-5.9-3.5-8.9-9.6-7.2-14.7,3.9-11.7-1.1-18-13.9-17.2-8.7.5-12.5-3-11.5-11.8.8-7.2,2.8-14.1,5-21.2,3.4-11,8.9-21.5,9.2-33.4.1-3.8,1.7-7,3.8-10.1a325.77,325.77,0,0,0,33.2-63.2c3.6-9.1,6.5-18.8,9.7-28,4.2-12.1,5.2-24.6,9.1-36.6,3.6-10.7,2.4-22.4,3.9-33.6.5-4,.6-8,1.2-11.9,1.5-8.8,2.6-9.7,11.8-9.8,10.8,0,21.8.1,32.8.1Z"/><path class="cls-7" d="M1190.4,1095c.2,3.2-1.1,6-3.2,8.8-4.8,6.3-4.9,8.1-.1,13.9,3.1,3.8,3.8,6.7.3,10.4-3.1,3.2-2.2,6.2-.1,9.8,4.7,7.8,2.2,16.7,2.5,25.1.1,3.4-3.5,4.8-6.6,4.6a64.26,64.26,0,0,1-9.8-1.4c-4.5-.8-7.4.4-9.5,4.9-3.8,7.8-6.2,8.7-14.1,5.6a42.09,42.09,0,0,0-12.5-2.9c-9.1-.6-17.1-5.3-25.3-8.5-25.2-9.8-47.9-24.2-68.3-42-7.7-6.8-7.8-9.7-.7-16.8,17.5-17.3,34.9-34.7,52.4-52.1,7.7-7.7,8.6-7.5,17.3-.9,13.2,10.1,27,18.8,43.5,23.1,8.7,2.2,16.9,5.4,26.1,5.7C1188.7,1082.6,1190.6,1086.1,1190.4,1095Z"/><path class="cls-7" d="M1101.5,1265.9c-3.5-.9-7.2-1.5-10.6-2.9-25.9-10.2-51.3-21.3-74.6-36.9a365.38,365.38,0,0,1-43.9-34.4c-6.1-5.7-6-8.9.1-14.9q22.2-22.2,44.6-44.4c6.1-6.1,7.7-6.1,14-.4a227.34,227.34,0,0,0,56.6,38.7c13.9,6.6,28.2,12.6,43.5,16.2,10.4,2.4,20.4,5.7,31.2,5.4a5.13,5.13,0,0,1,5.1,2.6c1.2,2.6-.8,4.9-2.8,5.7-10.4,4.3-18.2,14.3-31.2,13.6-7.6-.4-14.3,4.8-21.6,7.1-2.9.9-5.4,3.6-5.3,6.7.1,6.1-3.6,9.7-7.1,13.7-4.6,5.2-4.4,6.7.6,11.6,1.9,1.8,4.1,3.5,5.8,5.4,1.3,1.5,2.1,3.5,1,5.5C1105.6,1266.4,1103.5,1266.1,1101.5,1265.9Z"/><path class="cls-7" d="M1006.5,958.4h29c3.4,0,7.3-.4,9.5,2.2,4.4,5.2,8.7,6.1,14.6,2.7,2.8-1.6,4.2,1.1,4.8,3.4a76.45,76.45,0,0,1,2.7,11.7c2.5,18.6,11.4,34.5,21.6,49.6,5.3,7.8,5.5,8.2-1.2,14.9q-24,24-48,47.9c-2.1,2.1-4.2,4.3-6.3,6.4-7,6.9-9.2,7-15-.5-5.3-6.8-10.4-13.8-15.2-21a211.35,211.35,0,0,1-24.9-50.7c-3.5-10.8-8.5-21.6-8.5-33.6,0-6.2-2.1-12.4-3.3-18.6-2.1-11,.3-14.2,11.3-14.4,9.6-.2,19.3,0,28.9,0Z"/><path class="cls-7" d="M938.3,958.4c2,0,4-.2,6,0,4.6.4,7.8,3,7.4,7.7-1.3,15.7,4.5,30.3,7.2,45.2s8.7,29.2,15.3,43c9.3,19.6,20.6,37.9,34.8,54.4,4.5,5.2,3.8,8.9-1.1,13.9q-21.45,21.6-43.1,43.1c-6,6-9.7,5.7-14.4-1.1a87.39,87.39,0,0,1-12.5-27c-.8-2.9-1.5-6-3.8-8.1-4.9-4.4-3.2-11.4-6.9-16.3-1.1-1.5.1-3.2,1.1-4.5,8.4-11.2,5.5-22.9.3-33.9-3.1-6.6-4.8-13-4.6-20.1.2-9.3-.2-18.7,1.3-27.9,1.9-11.7-.7-23.3-1.6-34.8-.7-9.4,3.3-18.4.8-27.7-.8-2.9,2-4.9,4.8-5.4a66.7,66.7,0,0,1,8.9-.7C938.3,958.3,938.3,958.3,938.3,958.4Z"/><path class="cls-7" d="M1500.7,959.6c5.3,0,10.7-.2,16,0,8,.4,9.3,1.8,9.3,9.6a89.87,89.87,0,0,1-3,24.7,68.64,68.64,0,0,0-3,19.7,19.11,19.11,0,0,1-.6,5.9c-7.2,22.7-12.9,45.8-23.4,67.5-6.4,13.2-12.7,26.2-22.9,37.2-5.2,5.6-6,14-11.1,19.9-2.8,3.3-4.9,7.1-7.4,10.6-2,2.8-4.4,5.1-8,5.5-6.2.6-11.2,3.5-16.4,6.7-8.7,5.3-10.9,4.8-18.4-2.1a38.34,38.34,0,0,1-2.9-2.8c-2.3-2.6-6.7-4.6-3.9-9,2.5-4,6.6-5.3,11.3-4.5.6.1,1.2.5,1.9.7,7.8,2.1,11.6,1.5,14.6-5.6,8-18.8,17.4-37.5,15.2-59.1-.1-.7,0-1.3-.1-2-.1-1.7-.3-3.4-2.2-4.1s-3.1.4-4.2,1.8a56,56,0,0,0-10.5,18,17,17,0,0,1-16.7,11.8c-2.9,0-5.4-.6-6.3-3.7-.8-2.8,1.3-4.3,3.4-5.4,16.1-8.7,25-23.1,31.3-39.6,4.2-11,10.8-20.1,18.1-29.3,6.3-8,11.1-15,22.2-16.3,4.7-.5,9.2-5.2,13.1-8.7,6.2-5.5,5.4-12.4-2.1-15.8-11.7-5.3-14-16.2-17.3-26.5-1.1-3.3,1.8-4.8,4.7-4.9,6.3-.2,12.6-.1,19-.1C1500.7,959.8,1500.7,959.7,1500.7,959.6Z"/><path class="cls-7" d="M1202.6,1339.2c0-10.7-.2-21.3,0-32,.2-9.3,2.1-11.1,11.2-11.4,14.6-.5,29.2-1.2,43.4-5.3,8.3-2.4,12.3,1.8,11.2,9.8-1.1,7.7-.3,7.9,7.6,9.7,10.1,2.3,19.9,5.2,27,13.7,4.6,5.6,4.8,7.1.5,12.9a41.19,41.19,0,0,0-3.9,5.7c-3.5,6.8-2.4,9.3,4.7,12,4.3,1.6,9,2.6,12.8,5.4,1.4,1,2.6,2.2,2.5,4.1a4,4,0,0,1-4,3.8c-11.5,0-21.5,7.4-33.1,6.7a14.13,14.13,0,0,0-4.9.9c-20.9,7-42.9,4.9-64.3,7.9-7.5,1-10.4-2.4-10.6-10.9-.4-11-.2-22-.1-33Z"/><path class="cls-7" d="M912.8,1215.6a7.17,7.17,0,0,1-2.2,4.3c-7.5,7.5-14.9,15.2-22.7,22.5-4.6,4.3-7.3,3.9-12.4-2.1-9.3-10.9-18.5-21.9-27.1-33.2-14.5-19-26-40.1-38.1-60.6a12.8,12.8,0,0,1-1.7-4.6c-.4-3.1,2.1-4.9,5.1-3.8,3.2,1.2,5.4,3.9,7.7,6.3a108.53,108.53,0,0,0,22.5,18c2.9,1.8,5.7,3.5,9.2,2,5.1-2.1,8.9.3,12.6,3.6,10.2,9.1,18.5,20,28.1,29.6,4.9,4.9,8.8,10.9,15.7,13.6A5.06,5.06,0,0,1,912.8,1215.6Z"/><path class="cls-33" d="M1202.7,1108.3c0-7.2-.3-12.5.1-17.8.3-4.2,2.1-7.9,7.1-8.2,4.4-.3,6.5,2.7,7.8,6.4.3.9.4,1.9.7,2.9,2.8,8.6,2.8,8.7,10.9,4.6,2.9-1.5,5.1-1.2,6.6,1.7s2.9,6,5.5,8.2c1.3,1.1,2.5,2.3,4.4,1.7,2.2-.7,3.6-2.8,3.1-4.5-1.9-7.2,3.3-15.3-3.4-21.8-2.3-2.3-1-4.9.9-7.1s4.3-3.1,7.1-1.5c.9.5,1.6,1.2,2.5,1.7,4.6,2.6,8.7,3.1,11.9-2.2,1.6-2.6,4.3-3.7,6.7-1.5,2.8,2.5.7,5-1.5,6.5-3.2,2.3-3.8,5.3-3.2,8.8,1.1,6.8-3.3,12.8-2.5,19.6a3,3,0,0,1-1.4,2.5c-9,5.8-17.1,14.3-29.4,11.8a6.14,6.14,0,0,0-6.2,1.9c-5,4.8-10.2,9.4-15.4,14a23.09,23.09,0,0,1-3.9,3.1c-4.4,2.4-7.3,1.1-7.4-3.8C1203.8,1125.6,1201.4,1116.1,1202.7,1108.3Z"/><path class="cls-34" d="M1275.4,1200.3h-15c-2.7,0-5.6-.2-6.5-3.4a6.63,6.63,0,0,1,3-7.8c1.9-1.2,4.2-2.7,6.3-2.7,10.4-.2,19.1-5.8,28.2-9.4,19.8-7.8,38.1-18.7,55.1-31.5,3.4-2.6,6.2-6,10.2-7.9s6.2-1.1,7.7,2.9c3.3,8.5,1.3,15.5-6.2,20.9a58.39,58.39,0,0,0-5.6,4.2c-10.7,10.8-24.3,16-38.6,19.5-5.5,1.3-10,3.3-12.2,9-1.7,4.2-5.1,5.8-9.5,6C1286.7,1200.3,1281.1,1200.5,1275.4,1200.3Z"/><path class="cls-35" d="M1337.1,1112c3.3.7,6.6,1.7,8.2,5s-.6,5.7-2.7,7.9c-4.1,4.4-8.1,8.9-12.2,13.2-3,3.1-6.5,4.8-10.8,2.8-4.6-2.2-4.5-6.3-3.7-10.3a80.51,80.51,0,0,1,2.7-9.6c1-3.1,2.8-5.7,6.4-5.2C1329.6,1116.4,1332.5,1111.7,1337.1,1112Z"/><path class="cls-35" d="M1224.6,1180.3h-2.7c-3.4-.5-8.5,1.6-9.5-2.9s3.2-7.7,7-9.8c1.6-.9,3.8-1,5.7-1.3,2.3-.4,5.2,0,6.7-1.3,8.9-7.8,16-.1,23.6,2.4a3.12,3.12,0,0,1,2.3,2.9,3.41,3.41,0,0,1-2.9,3.5C1244.1,1175.1,1234.1,1180.4,1224.6,1180.3Z"/><path class="cls-36" d="M1275.5,1167.6c-7-1.2-14.1-1.5-19-7.6-1-1.3-2.4-2.6-1.7-4.4a4.66,4.66,0,0,1,4.8-2.9,19.76,19.76,0,0,1,6.8,1.5c4.1,1.7,8.5,1.3,12.6,2.6,3,.9,5.8,2.5,5.3,6.2-.4,3.1-3.3,3.9-5.9,4.5A14.31,14.31,0,0,1,1275.5,1167.6Z"/><path class="cls-37" d="M1392.1,1167c-.5,3.3-2.3,5-5.5,4.1a81.67,81.67,0,0,1-12.1-4c-4.4-2-5.2-6.7-2.5-10.9,2.4-3.8,6.3-4.8,10.1-1.8C1386.3,1157.7,1391.3,1160.8,1392.1,1167Z"/><path class="cls-38" d="M814.8,958.2a88.09,88.09,0,0,1,8.9.1,4.37,4.37,0,0,1,4.4,4.4c.1,2.7-1.6,4.3-4,5a14.39,14.39,0,0,1-5.8.6c-5.2-.6-10.4-1.5-15.6-2.3-2-.3-4-1.3-3.9-3.6s2.3-3.2,4.2-3.5c3.9-.6,7.8-.7,11.8-1A.19.19,0,0,0,814.8,958.2Z"/><path class="cls-36" d="M1490.8,1265.9c0,3.7-6.3,8.3-11.1,8.1-4-.2-6.3-2.9-6.2-7.4.2-5.3,4.4-10.3,8.9-10.4C1486.4,1256.1,1490.9,1261.3,1490.8,1265.9Z"/><path class="cls-39" d="M1364.8,1105.3c-.7,2.8-2.4,4.7-5.5,4.6-2.9-.1-5.3-1.6-5.3-4.7s2.7-4.4,5.5-4.5C1362.5,1100.5,1364.4,1102.2,1364.8,1105.3Z"/><path class="cls-40" d="M1296.5,986.2c-1.9-.2-4.5-.3-4.1-2.9.5-3,3.3-3.7,6-3.5,2.1.1,3.9,1.2,3.5,3.5C1301.3,986.1,1298.7,986.1,1296.5,986.2Z"/><path class="cls-41" d="M1248.2,1048.7c1.9.3,3,1.3,2.9,3.2-.1,1.6-1.5,2.1-2.8,2.2-1.8.1-3.6-.4-3.5-2.5C1244.9,1050,1246.3,1048.9,1248.2,1048.7Z"/><path class="cls-7" d="M1195.7,870h145c2,0,4,.1,6,0,6.8-.2,7.1-.6,7-6.5s-.3-6-7.5-6.2c-3.3-.1-6.7,0-10,0-8.3-.1-8.4-.2-8.5-8.2-.1-12,0-24,0-36,0-16.7-.1-33.3,0-50,0-7.6.2-7.6,7.8-7.8,20-.8,39.9-1.6,59.9-1.2,8,.2,8.1.2,8.2,8.4v149c0,8.6-.1,8.7-8.8,8.8-49.3.4-98.6.9-147.9,1-50.7.2-101.3.7-152-.2-32-.6-63.9-.9-95.9-1.1-7,0-7.2-.2-7.2-7.2-.1-50.7,0-101.3-.1-152,0-5.3,1.8-6.7,6.9-6.8,20.3-.5,40.6,1.4,60.9,1.3,4.9,0,6.3,2,6.3,6.6-.1,29.7-.1,59.3,0,89,0,4.8-1.8,6.6-6.5,6.5-5.3-.2-10.7.1-16,0-4.9-.1-4.9,3.1-5.1,6.7-.1,4,.9,6.4,5.5,6.1,3.3-.2,6.7,0,10,0Q1124.8,869.9,1195.7,870Z"/><path class="cls-7" d="M835.8,922.6H705.9c-2.3,0-4.7-.1-7,0-4.5.3-6.6-1.3-6.6-6.2.1-31,.1-61.9,0-92.9,0-4.9,2.2-6.5,6.7-6.2,1.7.1,3.3,0,5,0H967.7c13.1,0,12-.7,12,11.8V911c0,12.5,1.1,11.6-12.1,11.6Z"/><path class="cls-7" d="M1559,921.9H1429c-2.3,0-4.7-.2-7,0-4.7.4-6.5-1.4-6.4-6.2.2-13,.1-26,.1-39,0-17.3-.1-34.7,0-52,0-7.2.2-7.3,7.2-7.4,8-.1,16,0,24,0h241c2.7,0,5.3.2,8,0,4.7-.4,6.5,1.6,6.4,6.4-.2,10.7-.1,21.3-.1,32v57c0,9.2-.1,9.3-9.2,9.3Q1625.95,921.85,1559,921.9Z"/><path class="cls-34" d="M1558.9,810h-131c-2.3,0-4.7-.1-7,0-3.8.3-5.1-1.4-5.3-5.2-1.2-16.3-1.3-16.3,15.4-16.3h258c2.7,0,5.3.1,8,0,3.9-.2,5,1.7,5.3,5.4,1.2,16.1,1.3,16.1-14.4,16.1Z"/><path class="cls-7" d="M837,789.8H972.9a10,10,0,0,1,3,.1c6.7,2.1,3.2,7.7,3.6,11.7.3,3.1,2.1,7.9-4,8.3-2.3.1-4.7.1-7,.1H703.7c-2,0-4-.1-6,0-3.8.2-5.1-1.5-5.4-5.3-1.1-14.9-1.3-14.9,13.7-14.9Z"/><path class="cls-34" d="M1101.7,806.2V848c0,9-.1,9-8.6,9.2-17.4.5-17.4.5-17.4-17.1V764.4c0-9.1.1-9.1,9.4-9.2h7c9.5.1,9.6.1,9.6,10.1Z"/><path class="cls-34" d="M1137.7,807c0,14.3.1,28.6,0,42.8-.1,7-.3,7.2-7.3,7.4-4.6.1-9.3,0-13.9,0-3.4,0-4.7-1.7-4.7-4.9.1-6.6,0-13.3,0-19.9V763.7c0-8.2.2-8.2,8.2-8.4,3.7-.1,7.3.2,11-.1,5.2-.4,7,1.8,6.9,7C1137.6,777.1,1137.7,792.1,1137.7,807Z"/><path class="cls-34" d="M1173.7,806.4c0,14.6-.2,29.2.1,43.8.1,5.1-1.7,6.9-6.8,7.2-19.3,1-19.3,1.1-19.3-18.4V763.3c0-7.8.2-8,7.6-8,22.4.2,18-3,18.4,18.2C1173.9,784.5,1173.7,795.4,1173.7,806.4Z"/><path class="cls-34" d="M1209.7,806.8c0,14.3.1,28.6,0,42.8-.1,7.2-.2,7.6-7.2,7.5-23.2-.2-18.5,3-18.7-17.7-.3-25.2-.1-50.5-.1-75.7,0-8.4.1-8.6,8-8.5,21.6.2,17.6-2.9,17.9,17.6C1209.9,784.3,1209.7,795.5,1209.7,806.8Z"/><path class="cls-34" d="M1219.7,805c0-14.3.2-28.6-.1-42.8-.1-5.1,1.5-7.1,6.8-7,23.7.5,18.9-3,19.2,18.4.3,24.9.1,49.8.1,74.7,0,8.8-.1,9-8.8,8.9-20.6-.2-16.8,2.7-17.1-16.3C1219.5,828.9,1219.7,817,1219.7,805Z"/><path class="cls-34" d="M1317.7,807.1c0,14.3.1,28.6,0,42.8-.1,7-.3,7.1-7.4,7.4-4.3.1-8.6-.1-12.9.1s-5.7-1.9-5.7-6q.15-44.85,0-89.6c0-4.7,1.6-6.7,6.3-6.4a92.56,92.56,0,0,0,12.9,0c5.2-.3,6.9,1.9,6.9,7C1317.6,777.2,1317.7,792.1,1317.7,807.1Z"/><path class="cls-34" d="M1255.7,805c0-14.3.2-28.6-.1-42.8-.1-5.1,1.6-7.1,6.8-7,23.7.5,18.9-3,19.2,18.4.3,24.9.1,49.8.1,74.7,0,8.7-.1,9-8.8,8.9-20.6-.2-16.8,2.7-17.1-16.4C1255.5,828.9,1255.7,817,1255.7,805Z"/><path class="cls-42" d="M1178.2,713.2c.2-2.6-.5-6,3.4-5.9,3.4,0,2.7,3.2,2.7,5.4s.7,5.1-2.7,5.4S1178.3,715.5,1178.2,713.2Z"/><path class="cls-7" d="M1246.3,713.4c-.3,1.8.4,4.5-2.6,4.2-2.6-.3-2.2-2.8-2.2-4.7s-.3-4.6,2.2-4.7C1247.1,708.2,1246.1,711.3,1246.3,713.4Z"/><path class="cls-39" d="M1214.3,712.3c-.4,2.3.9,5.8-3.1,5.9-3.1,0-3-2.9-3-5.1,0-2.6-.4-5.8,3.3-5.9C1214.8,707,1214,710.1,1214.3,712.3Z"/><path class="cls-43" d="M1152.2,712.8c-.2,2.5.5,5.7-3.6,5.3-3.3-.3-2.7-3.2-2.7-5.3,0-2.5-.7-5.9,3.1-5.9S1152,710.3,1152.2,712.8Z"/><path class="cls-44" d="M1206,566.1a9.7,9.7,0,0,0-.1,1.7c-6,.1-12,.7-18-.3a3.79,3.79,0,0,0,0-1.5C1194,561.8,1200,561.9,1206,566.1Z"/><path class="cls-45" d="M1188.3,578.4c.7-.2,1.4-.5,2.1-.7,4.4,0,8.8.1,13.3.1.9-.9,1.7-.9,2.4.1h0c0,.8-.1,1.7-.1,2.5-6,3.6-11.9,3.6-17.9,0A12.32,12.32,0,0,1,1188.3,578.4Z"/><path class="cls-29" d="M1206.1,577.9c-.8,0-1.6-.1-2.4-.1.7-2.1-.3-4.5,1.5-6.8C1206.8,573.3,1205.9,575.7,1206.1,577.9Z"/><path class="cls-46" d="M1188,580.4a82.4,82.4,0,0,1,17.9,0c2.2,2.4,1.9,4.9,0,7.3-6,4.6-11.9,3.8-17.9-.2C1186.1,585.1,1185.9,582.8,1188,580.4Z"/><path class="cls-7" d="M1204.2,592.1c.3,8.1.3,8.1-7.2,8.2h-4.8c-1.6-3,0-5.6-.4-8.1C1196,589.2,1200.1,589.2,1204.2,592.1Z"/><path class="cls-47" d="M1188.1,587.5c5.9.8,11.9.5,17.9.2a17.7,17.7,0,0,0,.1,2.3c-4.1,2.1-8.4.5-12.6,1a5,5,0,0,1-3.1-.8c-.6-.3-1.3-.5-1.9-.8A6.46,6.46,0,0,1,1188.1,587.5Z"/><path class="cls-48" d="M1192,590.5l14-.6-1.8,2.1h-12.4l-.5-.8Z"/><path class="cls-7" d="M1192,590.5a8.6,8.6,0,0,1-.1,1.6l-1.6-1.9Z"/><path class="cls-32" d="M1206,566.1h-18c-4.9-5.9,1.9-7.1,4-10.2h10a9.64,9.64,0,0,0,8.1,4,5.66,5.66,0,0,0-.3,1.8C1208.4,563,1206.5,564,1206,566.1Z"/><path class="cls-49" d="M1196,903.3H1032c-2.3,0-4.7-.1-7,0-4.3.2-7-.9-6.8-6.1.2-5.6.7-6.3,7.3-6.6,2-.1,4,0,6,0h329c2.3,0,4.7-.1,7,0,5.7.4,6.6,1.7,6.3,7.5-.2,3.3-1.5,4.9-4.8,5-2.7.1-5.3.1-8,.1C1306,903.4,1251,903.3,1196,903.3Z"/><path class="cls-50" d="M771.9,846.4v5.9c.1,3.3-1.6,5-4.8,4.9-4.5-.1-10.3,2.2-13.3-1.4-3.8-4.8-1.3-11.4-1.3-17.2a2.86,2.86,0,0,1,1.6-2.2,48.65,48.65,0,0,1,15.7-.1c1.4.2,1.9,1.7,1.9,3.1.2,2.4.2,4.7.2,7Z"/><path class="cls-50" d="M737.8,847.6c-.5,2.8,1.6,7.1-1.9,8.8-4.8,2.3-10.3,1.5-15.5.4-1.8-.4-2.2-2.3-2.2-4,0-2.3-.1-4.6-.1-6.9,0-9.9,0-9.9,9.5-9.9C737.9,835.9,737.9,835.9,737.8,847.6Z"/><path class="cls-12" d="M913.7,846.3v5.9c0,3.2-1.4,4.9-4.7,5.1-1,0-2,.2-3,.1-3.8-.4-9.2,1.8-11-2-2.4-5.3-1.2-11.7-.5-17.6.2-1.3,1.8-1.8,3.2-1.8,2-.1,4-.1,5.9-.1C913.8,835.9,913.8,835.9,913.7,846.3Z"/><path class="cls-51" d="M787.8,846.8c.1-11.8-1.3-10.8,11.4-10.8,7.8,0,7.8.1,8.1,7.5.1,1.3,0,2.6,0,3.9-.1,10-.1,10-9.7,10C787.8,857.5,787.8,857.5,787.8,846.8Z"/><path class="cls-51" d="M824.5,845.4c.1-9.5.1-9.5,9.9-9.5,2,0,4,0,5.9.1,1.7.1,3.4.6,3.5,2.7.1,5.3.1,10.5-.1,15.8a2.79,2.79,0,0,1-2.6,2.5,17.22,17.22,0,0,1-3.9.4C824.9,858.3,824.4,857.8,824.5,845.4Z"/><path class="cls-52" d="M931.6,846.5c.1-11.5-1.2-10.5,11-10.5,7.6,0,7.6.1,7.7,7.7,0,2,.1,4,0,6-.2,7.5-.2,7.5-8,7.7C931.6,857.6,931.6,857.6,931.6,846.5Z"/><path class="cls-18" d="M878.2,846.1v6c.1,3.2-1.3,4.7-4.6,5.2-12.7,2.1-14.5.7-14.1-12.4.1-3-1.9-7.5,2.5-8.5,4.7-1.1,10.3-1.9,14.6.5C880.1,838.8,877.3,843.7,878.2,846.1Z"/><path class="cls-53" d="M1567.7,846.3v6.9c0,2.3-1.3,3.9-3.5,4-5.1,0-12,2.7-14.9-1.9s-2.8-12.4-.2-17.2,9.6-1.6,14.7-2c3.7-.3,4.1,2.4,4.1,5.3-.1,1.6-.1,3.2-.2,4.9Z"/><path class="cls-53" d="M1514.2,846.1c0-1.7.1-3.3,0-4.9-.2-3.8,1.5-5,5.2-5.3,14.1-1.1,14.7-.7,14.4,13-.2,8.3-.2,8.3-8.2,8.6h-3c-8.2-.2-8.3-.2-8.4-8.3v-3.1Z"/><path class="cls-54" d="M1605.8,846.4v5.9c.1,3.2-1.5,5-4.7,4.9-4.5-.1-10.4,2.2-13.3-1.4-3.8-4.7-1.2-11.4-1.4-17.2,0-.3,0-.8.2-.9,4.7-3.4,10.1-1.4,15.2-1.7,3.7-.2,4,2.6,4,5.4v5Z"/><path class="cls-55" d="M1640.3,847.1c0,1.7-.1,3.3,0,5,.2,3.9-1.7,5.1-5.4,5.4-12.9,1.1-13.6.7-13.2-12.4.1-3-2-7.6,2.4-8.6a29.3,29.3,0,0,1,14.7.2c1.4.4,1.4,2.1,1.4,3.4.1,2.3.1,4.6.1,7Z"/><path class="cls-55" d="M1443.7,846.7c.1-11.7-1.2-10.7,10.7-10.7,7.8,0,7.8.1,8,7.4v5c-.1,8.9-.1,8.9-8.7,8.9C1443.7,857.5,1443.7,857.5,1443.7,846.7Z"/><path class="cls-56" d="M1674.3,845.6c0,2.5-.1,4.5,0,6.5.2,3.9-1.8,5-5.4,5.3-12.9,1-13.5.7-13.1-12.4.1-3-2-7.6,2.4-8.6,4.7-1.1,10.2-1.8,14.6.5C1675.9,838.5,1673.8,843,1674.3,845.6Z"/><path class="cls-56" d="M1479.7,846.9c.1-11.9-1.6-10.9,11.5-10.9,6.9,0,6.9.2,7.1,7.2.1,2.3.1,4.6,0,7-.2,6.9-.2,6.9-7.5,7.1C1479.7,857.7,1479.7,857.7,1479.7,846.9Z"/><path class="cls-48" d="M766.4,847.4c.2,3.2-1.3,4.6-4.7,4.6-3.9-.1-3.9-2.5-4-5.3-.1-3.3,1.2-4.8,4.6-4.7C766.2,842.1,766.6,844.5,766.4,847.4Z"/><path class="cls-48" d="M728.4,851.9c-3.2.4-4.8-1.1-4.7-4.5.1-2.7,0-5.3,3.9-5.4,3.3-.1,4.9,1.1,4.8,4.5C732.2,849.3,732.4,852.1,728.4,851.9Z"/><path class="cls-48" d="M904.1,842.1c3.8-.2,4.1,2.3,4.1,5.1.1,3.2-1,4.9-4.5,4.8-3.7-.1-4.1-2.3-4.1-5.2C899.6,843.6,900.7,841.7,904.1,842.1Z"/><path class="cls-57" d="M797.3,842c3.4-.3,4.7,1.2,4.8,4.6s-.8,5.6-4.9,5.5c-3.2-.1-4.7-1.3-4.8-4.7S793.2,841.6,797.3,842Z"/><path class="cls-57" d="M839.4,847.3c.3,3.4-1.3,4.7-4.6,4.8-4,.1-5-1.9-4.9-5.4.1-3.3,1.2-4.7,4.6-4.8C838.5,841.8,839.8,843.7,839.4,847.3Z"/><path class="cls-48" d="M939.7,852c-4,.2-4-2.5-4.1-5.3-.1-3.3,1.3-4.8,4.7-4.7,3.9.1,4,2.5,4,5.4C944.5,850.7,943.1,852.4,939.7,852Z"/><path class="cls-58" d="M869,852.1c-3.2.2-5-.9-5-4.4s.4-5.8,4.7-5.8c4.1,0,5.1,1.9,5,5.5C873.7,850.8,872.3,852.3,869,852.1Z"/><path class="cls-59" d="M1558,842.2c3.8-.4,4.3,2,4.2,4.9-.1,2.4-.1,4.6-3.4,4.8s-4.9-1-4.8-4.5C1554.1,844.6,1554,841.9,1558,842.2Z"/><path class="cls-60" d="M1528.1,847.5c.3,3.3-1.4,4.6-4.7,4.4s-3.4-2.4-3.5-4.8c-.1-3,.5-5.1,4.2-5C1528.1,842.1,1528.2,844.6,1528.1,847.5Z"/><path class="cls-61" d="M1595.1,842c3.3-.3,4.7,1.2,4.7,4.6,0,3.6-.9,5.6-5,5.5-3.7-.1-4.3-2.2-4.3-5.2S1591.5,841.8,1595.1,842Z"/><path class="cls-62" d="M1630.5,842.1c4.1-.2,3.9,2.6,3.9,5.4s-.8,4.4-3.9,4.5c-3.7.1-4.4-1.9-4.4-5S1626.8,841.7,1630.5,842.1Z"/><path class="cls-46" d="M1455.9,847c.3,3.6-1.1,5.1-4.5,5s-3.6-2.2-3.6-4.7c0-2.9.2-5.3,4.1-5.2C1455.6,842.1,1456.2,844.2,1455.9,847Z"/><path class="cls-63" d="M1669.6,847c.4,3.9-1.3,5-4.6,5.1-4,.1-5-1.9-4.9-5.5,0-3.4,1.5-4.6,4.7-4.7C1668.8,841.9,1670.3,843.6,1669.6,847Z"/><path class="cls-64" d="M1484.3,847.4c-.1-3,.3-5.3,4-5.5,3.9-.2,5.3,1.5,5.2,5.3-.1,3.3-1.2,4.9-4.6,4.9S1484,850.7,1484.3,847.4Z"/></g></g></svg>